<?xml version="1.0" encoding="UTF-8"?>
<!DOCTYPE svg PUBLIC "-//W3C//DTD SVG 1.1//EN" "http://www.w3.org/Graphics/SVG/1.1/DTD/svg11.dtd">
<svg xmlns="http://www.w3.org/2000/svg" version="1.1" width="256px" height="256px" style="shape-rendering:geometricPrecision; text-rendering:geometricPrecision; image-rendering:optimizeQuality; fill-rule:evenodd; clip-rule:evenodd" xmlns:xlink="http://www.w3.org/1999/xlink">
<g><path style="opacity:0.972" fill="#f37f53" d="M 99.5,-0.5 C 105.167,-0.5 110.833,-0.5 116.5,-0.5C 131.194,4.53304 138.861,14.8664 139.5,30.5C 134.167,30.5 128.833,30.5 123.5,30.5C 119.438,15.9242 110.771,12.2575 97.5,19.5C 89.7242,18.7124 86.3909,14.3791 87.5,6.5C 91.2397,3.63325 95.2397,1.29992 99.5,-0.5 Z"/></g>
<g><path style="opacity:0.949" fill="#e56947" d="M 87.5,6.5 C 86.3909,14.3791 89.7242,18.7124 97.5,19.5C 94.7689,22.6343 93.4355,26.301 93.5,30.5C 92.8333,30.5 92.1667,30.5 91.5,30.5C 86.5,30.5 81.5,30.5 76.5,30.5C 76.9478,20.9427 80.6145,12.9427 87.5,6.5 Z"/></g>
<g><path style="opacity:0.994" fill="#f27f54" d="M 76.5,30.5 C 81.5,30.5 86.5,30.5 91.5,30.5C 83.9053,35.8959 81.4053,43.2292 84,52.5C 85.6416,56.3003 88.1416,59.3003 91.5,61.5C 84.8333,61.5 78.1667,61.5 71.5,61.5C 65.7088,61.1087 61.3755,58.442 58.5,53.5C 56.9948,47.7171 57.3281,42.0505 59.5,36.5C 63.8126,31.0743 69.4792,29.0743 76.5,30.5 Z"/></g>
<g><path style="opacity:0.998" fill="#f8986e" d="M 91.5,30.5 C 92.1667,30.5 92.8333,30.5 93.5,30.5C 103.5,30.5 113.5,30.5 123.5,30.5C 128.833,30.5 134.167,30.5 139.5,30.5C 146.521,29.0743 152.187,31.0743 156.5,36.5C 158.7,42.0356 159.033,47.7022 157.5,53.5C 155.203,57.2867 151.869,59.7867 147.5,61C 128.836,61.4999 110.17,61.6666 91.5,61.5C 88.1416,59.3003 85.6416,56.3003 84,52.5C 81.4053,43.2292 83.9053,35.8959 91.5,30.5 Z"/></g>
<g><path style="opacity:0.977" fill="#443866" d="M 59.5,36.5 C 57.3281,42.0505 56.9948,47.7171 58.5,53.5C 46.1492,57.018 38.3158,65.018 35,77.5C 34.3333,123.167 34.3333,168.833 35,214.5C 38.2203,226.552 45.7203,234.552 57.5,238.5C 51.7618,243.193 51.0951,248.526 55.5,254.5C 37.3286,249.829 25.4953,238.496 20,220.5C 18.3578,172.871 18.0244,125.204 19,77.5C 23.2763,54.7237 36.7763,41.057 59.5,36.5 Z"/></g>
<g><path style="opacity:0.984" fill="#544575" d="M 156.5,36.5 C 185.447,43.8028 199.113,62.4695 197.5,92.5C 193.563,97.7757 189.229,102.776 184.5,107.5C 184.167,107.5 183.833,107.5 183.5,107.5C 182.833,98.8333 182.167,90.1667 181.5,81.5C 179.603,66.936 171.603,57.6026 157.5,53.5C 159.033,47.7022 158.7,42.0356 156.5,36.5 Z"/></g>
<g><path style="opacity:1" fill="#deddfe" d="M 58.5,53.5 C 61.3755,58.442 65.7088,61.1087 71.5,61.5C 69.088,65.9942 66.9213,70.6608 65,75.5C 64.5,95.4972 64.3334,115.497 64.5,135.5C 60.1539,135.334 55.8206,135.501 51.5,136C 50.1667,138 50.1667,140 51.5,142C 55.8206,142.499 60.1539,142.666 64.5,142.5C 64.5,147.833 64.5,153.167 64.5,158.5C 60.4862,158.334 56.4862,158.501 52.5,159C 49.9456,161.269 49.9456,163.602 52.5,166C 56.4862,166.499 60.4862,166.666 64.5,166.5C 64.5,171.5 64.5,176.5 64.5,181.5C 60.4862,181.334 56.4862,181.501 52.5,182C 50.3517,184.075 50.0183,186.408 51.5,189C 55.8206,189.499 60.1539,189.666 64.5,189.5C 64.3336,198.173 64.5002,206.84 65,215.5C 66.2294,220.529 68.2294,225.196 71,229.5C 74.4381,233.441 78.2714,236.775 82.5,239.5C 74.0817,239.802 65.7483,239.469 57.5,238.5C 45.7203,234.552 38.2203,226.552 35,214.5C 34.3333,168.833 34.3333,123.167 35,77.5C 38.3158,65.018 46.1492,57.018 58.5,53.5 Z"/></g>
<g><path style="opacity:1" fill="#f5f3fe" d="M 157.5,53.5 C 171.603,57.6026 179.603,66.936 181.5,81.5C 181.5,90.8333 181.5,100.167 181.5,109.5C 178.167,113.167 174.833,116.833 171.5,120.5C 157.167,134.167 143.167,148.167 129.5,162.5C 115.349,173.486 108.849,187.819 110,205.5C 111.451,207.464 113.284,208.797 115.5,209.5C 132.019,209.076 145.686,202.409 156.5,189.5C 164.833,181.5 173.167,173.5 181.5,165.5C 181.667,181.837 181.5,198.17 181,214.5C 177.491,227.342 169.325,235.509 156.5,239C 131.836,239.5 107.169,239.667 82.5,239.5C 78.2714,236.775 74.4381,233.441 71,229.5C 68.2294,225.196 66.2294,220.529 65,215.5C 64.5002,206.84 64.3336,198.173 64.5,189.5C 73.1731,189.666 81.8397,189.5 90.5,189C 93.1667,186.667 93.1667,184.333 90.5,182C 81.8397,181.5 73.1731,181.334 64.5,181.5C 64.5,176.5 64.5,171.5 64.5,166.5C 73.1731,166.666 81.8397,166.5 90.5,166C 93.1667,163.667 93.1667,161.333 90.5,159C 81.8397,158.5 73.1731,158.334 64.5,158.5C 64.5,153.167 64.5,147.833 64.5,142.5C 75.8382,142.667 87.1716,142.5 98.5,142C 101.167,140 101.167,138 98.5,136C 87.1716,135.5 75.8382,135.333 64.5,135.5C 64.3334,115.497 64.5,95.4972 65,75.5C 66.9213,70.6608 69.088,65.9942 71.5,61.5C 78.1667,61.5 84.8333,61.5 91.5,61.5C 110.17,61.6666 128.836,61.4999 147.5,61C 151.869,59.7867 155.203,57.2867 157.5,53.5 Z"/></g>
<g><path style="opacity:1" fill="#24cb9b" d="M 75.5,80.5 C 81.1764,80.3339 86.8431,80.5006 92.5,81C 95.1667,83.3333 95.1667,85.6667 92.5,88C 88.8484,88.4986 85.1817,88.6653 81.5,88.5C 81.5,91.1667 81.5,93.8333 81.5,96.5C 85.1817,96.3347 88.8484,96.5014 92.5,97C 95.1667,99.3333 95.1667,101.667 92.5,104C 88.8484,104.499 85.1817,104.665 81.5,104.5C 81.5,106.833 81.5,109.167 81.5,111.5C 85.1817,111.335 88.8484,111.501 92.5,112C 95.1667,114.333 95.1667,116.667 92.5,119C 86.2511,119.809 80.0844,119.642 74,118.5C 73.3333,106.5 73.3333,94.5 74,82.5C 74.7172,81.9558 75.2172,81.2891 75.5,80.5 Z"/></g>
<g><path style="opacity:1" fill="#23cb9b" d="M 117.5,80.5 C 120.85,80.335 124.183,80.5017 127.5,81C 130.167,83.3333 130.167,85.6667 127.5,88C 115.156,87.0099 109.656,92.5099 111,104.5C 116.515,112.608 123.182,113.608 131,107.5C 131.374,106.584 131.874,105.75 132.5,105C 129.5,104.667 126.5,104.333 123.5,104C 120.833,101.667 120.833,99.3333 123.5,97C 140.737,92.2086 145.237,97.3753 137,112.5C 127.247,121.358 117.247,121.691 107,113.5C 98.4785,98.5654 101.978,87.5654 117.5,80.5 Z"/></g>
<g><path style="opacity:1" fill="#817699" d="M 181.5,81.5 C 182.167,90.1667 182.833,98.8333 183.5,107.5C 183.167,108.5 182.5,109.167 181.5,109.5C 181.5,100.167 181.5,90.8333 181.5,81.5 Z"/></g>
<g><path style="opacity:0.981" fill="#f8536f" d="M 232.5,96.5 C 226.292,94.7951 220.292,95.2951 214.5,98C 208.244,104.762 201.577,110.929 194.5,116.5C 191.167,113.5 187.833,110.5 184.5,107.5C 189.229,102.776 193.563,97.7757 197.5,92.5C 208.698,81.9194 219.865,81.9194 231,92.5C 231.791,93.745 232.291,95.0783 232.5,96.5 Z"/></g>
<g><path style="opacity:0.988" fill="#fe758d" d="M 232.5,96.5 C 235.873,105.421 234.206,113.421 227.5,120.5C 221.89,124.772 216.557,129.438 211.5,134.5C 206.5,128.833 201.167,123.5 195.5,118.5C 195.167,117.833 194.833,117.167 194.5,116.5C 201.577,110.929 208.244,104.762 214.5,98C 220.292,95.2951 226.292,94.7951 232.5,96.5 Z"/></g>
<g><path style="opacity:1" fill="#f4c957" d="M 183.5,107.5 C 183.833,107.5 184.167,107.5 184.5,107.5C 187.833,110.5 191.167,113.5 194.5,116.5C 194.833,117.167 195.167,117.833 195.5,118.5C 190.558,122.103 185.892,126.103 181.5,130.5C 181.167,130.5 180.833,130.5 180.5,130.5C 177.5,127.167 174.5,123.833 171.5,120.5C 174.833,116.833 178.167,113.167 181.5,109.5C 182.5,109.167 183.167,108.5 183.5,107.5 Z"/></g>
<g><path style="opacity:1" fill="#f7e769" d="M 195.5,118.5 C 201.167,123.5 206.5,128.833 211.5,134.5C 207.5,139.167 203.167,143.5 198.5,147.5C 192.5,142.167 186.833,136.5 181.5,130.5C 185.892,126.103 190.558,122.103 195.5,118.5 Z"/></g>
<g><path style="opacity:0.981" fill="#f8526f" d="M 227.5,120.5 C 234.978,121.104 237.811,125.104 236,132.5C 224.863,144.638 213.363,156.471 201.5,168C 200.255,168.791 198.922,169.291 197.5,169.5C 193.073,170.125 190.073,168.459 188.5,164.5C 188.248,161.68 188.748,159.014 190,156.5C 193.038,153.631 195.871,150.631 198.5,147.5C 203.167,143.5 207.5,139.167 211.5,134.5C 216.557,129.438 221.89,124.772 227.5,120.5 Z"/></g>
<g><path style="opacity:1" fill="#f8546f" d="M 171.5,120.5 C 174.5,123.833 177.5,127.167 180.5,130.5C 168.089,144.414 155.089,157.914 141.5,171C 140.906,171.464 140.239,171.631 139.5,171.5C 136.167,168.5 132.833,165.5 129.5,162.5C 143.167,148.167 157.167,134.167 171.5,120.5 Z"/></g>
<g><path style="opacity:1" fill="#fd758d" d="M 180.5,130.5 C 180.833,130.5 181.167,130.5 181.5,130.5C 186.833,136.5 192.5,142.167 198.5,147.5C 195.871,150.631 193.038,153.631 190,156.5C 188.748,159.014 188.248,161.68 188.5,164.5C 187.698,163.048 187.198,161.382 187,159.5C 184.96,161.37 183.127,163.37 181.5,165.5C 173.167,173.5 164.833,181.5 156.5,189.5C 151.167,183.5 145.5,177.833 139.5,172.5C 139.5,172.167 139.5,171.833 139.5,171.5C 140.239,171.631 140.906,171.464 141.5,171C 155.089,157.914 168.089,144.414 180.5,130.5 Z"/></g>
<g><path style="opacity:1" fill="#c3c3f4" d="M 64.5,135.5 C 64.5,137.833 64.5,140.167 64.5,142.5C 60.1539,142.666 55.8206,142.499 51.5,142C 50.1667,140 50.1667,138 51.5,136C 55.8206,135.501 60.1539,135.334 64.5,135.5 Z"/></g>
<g><path style="opacity:1" fill="#dfdeff" d="M 64.5,135.5 C 75.8382,135.333 87.1716,135.5 98.5,136C 101.167,138 101.167,140 98.5,142C 87.1716,142.5 75.8382,142.667 64.5,142.5C 64.5,140.167 64.5,137.833 64.5,135.5 Z"/></g>
<g><path style="opacity:1" fill="#dfdeff" d="M 109.5,135.5 C 116.175,135.334 122.842,135.5 129.5,136C 132.167,138 132.167,140 129.5,142C 122.833,142.667 116.167,142.667 109.5,142C 108.232,139.837 108.232,137.67 109.5,135.5 Z"/></g>
<g><path style="opacity:1" fill="#c4c3f4" d="M 64.5,158.5 C 64.5,161.167 64.5,163.833 64.5,166.5C 60.4862,166.666 56.4862,166.499 52.5,166C 49.9456,163.602 49.9456,161.269 52.5,159C 56.4862,158.501 60.4862,158.334 64.5,158.5 Z"/></g>
<g><path style="opacity:1" fill="#dfdeff" d="M 64.5,158.5 C 73.1731,158.334 81.8397,158.5 90.5,159C 93.1667,161.333 93.1667,163.667 90.5,166C 81.8397,166.5 73.1731,166.666 64.5,166.5C 64.5,163.833 64.5,161.167 64.5,158.5 Z"/></g>
<g><path style="opacity:0.988" fill="#564777" d="M 188.5,164.5 C 190.073,168.459 193.073,170.125 197.5,169.5C 197.667,185.17 197.5,200.837 197,216.5C 192.085,236.913 179.585,249.913 159.5,255.5C 125.5,255.5 91.5,255.5 57.5,255.5C 57.1583,254.662 56.4916,254.328 55.5,254.5C 51.0951,248.526 51.7618,243.193 57.5,238.5C 65.7483,239.469 74.0817,239.802 82.5,239.5C 107.169,239.667 131.836,239.5 156.5,239C 169.325,235.509 177.491,227.342 181,214.5C 181.5,198.17 181.667,181.837 181.5,165.5C 183.127,163.37 184.96,161.37 187,159.5C 187.198,161.382 187.698,163.048 188.5,164.5 Z"/></g>
<g><path style="opacity:1" fill="#463967" d="M 129.5,162.5 C 132.833,165.5 136.167,168.5 139.5,171.5C 139.5,171.833 139.5,172.167 139.5,172.5C 135.17,176.998 131.003,181.665 127,186.5C 123.19,193.763 120.69,201.43 119.5,209.5C 118.167,209.5 116.833,209.5 115.5,209.5C 113.284,208.797 111.451,207.464 110,205.5C 108.849,187.819 115.349,173.486 129.5,162.5 Z"/></g>
<g><path style="opacity:1" fill="#554675" d="M 139.5,172.5 C 145.5,177.833 151.167,183.5 156.5,189.5C 145.686,202.409 132.019,209.076 115.5,209.5C 116.833,209.5 118.167,209.5 119.5,209.5C 120.69,201.43 123.19,193.763 127,186.5C 131.003,181.665 135.17,176.998 139.5,172.5 Z"/></g>
<g><path style="opacity:1" fill="#c4c4f4" d="M 64.5,181.5 C 64.5,184.167 64.5,186.833 64.5,189.5C 60.1539,189.666 55.8206,189.499 51.5,189C 50.0183,186.408 50.3517,184.075 52.5,182C 56.4862,181.501 60.4862,181.334 64.5,181.5 Z"/></g>
<g><path style="opacity:1" fill="#dfdeff" d="M 64.5,181.5 C 73.1731,181.334 81.8397,181.5 90.5,182C 93.1667,184.333 93.1667,186.667 90.5,189C 81.8397,189.5 73.1731,189.666 64.5,189.5C 64.5,186.833 64.5,184.167 64.5,181.5 Z"/></g>
</svg>
