<?xml version="1.0" encoding="UTF-8"?>
<!DOCTYPE svg PUBLIC "-//W3C//DTD SVG 1.1//EN" "http://www.w3.org/Graphics/SVG/1.1/DTD/svg11.dtd">
<svg xmlns="http://www.w3.org/2000/svg" version="1.1" width="256px" height="256px" style="shape-rendering:geometricPrecision; text-rendering:geometricPrecision; image-rendering:optimizeQuality; fill-rule:evenodd; clip-rule:evenodd" xmlns:xlink="http://www.w3.org/1999/xlink">
<g><path style="opacity:0.997" fill="#463b5e" d="M 95.5,-0.5 C 104.167,-0.5 112.833,-0.5 121.5,-0.5C 117.238,1.9262 113.738,5.25954 111,9.5C 110.333,16.8333 110.333,24.1667 111,31.5C 112.779,35.6118 115.612,38.7785 119.5,41C 112.174,41.4997 104.841,41.6663 97.5,41.5C 91.6257,39.9622 87.6257,36.2955 85.5,30.5C 84.2023,23.8028 84.2023,17.1362 85.5,10.5C 86.7954,4.87556 90.1288,1.20889 95.5,-0.5 Z"/></g>
<g><path style="opacity:0.997" fill="#5d557e" d="M 121.5,-0.5 C 134.167,-0.5 146.833,-0.5 159.5,-0.5C 164.871,1.20889 168.205,4.87556 169.5,10.5C 170.798,17.1362 170.798,23.8028 169.5,30.5C 167.223,36.6077 162.89,40.4411 156.5,42C 142.837,42.4999 129.171,42.6666 115.5,42.5C 109.31,42.8229 103.31,42.4896 97.5,41.5C 104.841,41.6663 112.174,41.4997 119.5,41C 115.612,38.7785 112.779,35.6118 111,31.5C 110.333,24.1667 110.333,16.8333 111,9.5C 113.738,5.25954 117.238,1.9262 121.5,-0.5 Z"/></g>
<g><path style="opacity:0.971" fill="#de6d2b" d="M 85.5,10.5 C 84.2023,17.1362 84.2023,23.8028 85.5,30.5C 71.9665,28.5117 62.7999,33.845 58,46.5C 57.3333,104.5 57.3333,162.5 58,220.5C 60.4139,228.415 65.5806,233.415 73.5,235.5C 82.3178,236.493 91.3178,236.827 100.5,236.5C 102.891,242.949 105.558,249.282 108.5,255.5C 94.8333,255.5 81.1667,255.5 67.5,255.5C 50.7409,250.237 40.9076,238.904 38,221.5C 37.3333,162.833 37.3333,104.167 38,45.5C 43.4894,20.1432 59.3227,8.47652 85.5,10.5 Z"/></g>
<g><path style="opacity:0.976" fill="#f68953" d="M 169.5,10.5 C 195.677,8.47652 211.511,20.1432 217,45.5C 217.667,104.167 217.667,162.833 217,221.5C 214.064,238.929 204.231,250.262 187.5,255.5C 161.167,255.5 134.833,255.5 108.5,255.5C 105.558,249.282 102.891,242.949 100.5,236.5C 126.835,236.667 153.169,236.5 179.5,236C 188.912,234.254 194.746,228.754 197,219.5C 197.667,161.833 197.667,104.167 197,46.5C 192.225,33.8561 183.059,28.5228 169.5,30.5C 170.798,23.8028 170.798,17.1362 169.5,10.5 Z"/></g>
<g><path style="opacity:1" fill="#dadafb" d="M 85.5,30.5 C 87.6257,36.2955 91.6257,39.9622 97.5,41.5C 103.31,42.4896 109.31,42.8229 115.5,42.5C 111.906,50.6165 108.906,58.9498 106.5,67.5C 96.5134,63.4954 90.5134,66.8288 88.5,77.5C 77.6819,76.8169 72.8486,81.8169 74,92.5C 75.083,96.4183 77.583,98.7517 81.5,99.5C 83.6074,100.468 85.9407,100.802 88.5,100.5C 89.087,105.354 91.4203,109.021 95.5,111.5C 93.2132,117.834 92.2132,124.5 92.5,131.5C 92.1667,131.5 91.8333,131.5 91.5,131.5C 87.0887,131.021 82.922,131.688 79,133.5C 75.0369,139.32 76.2036,143.653 82.5,146.5C 84.9479,147.473 87.6146,147.806 90.5,147.5C 90.5,153.833 90.5,160.167 90.5,166.5C 83.2892,164.609 78.6226,167.109 76.5,174C 78.6976,180.61 83.3643,183.443 90.5,182.5C 90.7764,188.547 91.4431,194.547 92.5,200.5C 87.8791,199.993 83.5458,200.826 79.5,203C 75.2867,208.041 75.9533,212.374 81.5,216C 85.8206,216.499 90.1539,216.666 94.5,216.5C 94.8333,216.5 95.1667,216.5 95.5,216.5C 96.6236,222.829 98.2903,228.996 100.5,235C 91.5062,235.5 82.5062,235.666 73.5,235.5C 65.5806,233.415 60.4139,228.415 58,220.5C 57.3333,162.5 57.3333,104.5 58,46.5C 62.7999,33.845 71.9665,28.5117 85.5,30.5 Z"/></g>
<g><path style="opacity:1" fill="#f3f2fb" d="M 169.5,30.5 C 183.059,28.5228 192.225,33.8561 197,46.5C 197.667,104.167 197.667,161.833 197,219.5C 194.746,228.754 188.912,234.254 179.5,236C 153.169,236.5 126.835,236.667 100.5,236.5C 91.3178,236.827 82.3178,236.493 73.5,235.5C 82.5062,235.666 91.5062,235.5 100.5,235C 98.2903,228.996 96.6236,222.829 95.5,216.5C 101.664,212.15 101.997,207.317 96.5,202C 95.2068,201.51 93.8734,201.343 92.5,201.5C 92.5,201.167 92.5,200.833 92.5,200.5C 91.4431,194.547 90.7764,188.547 90.5,182.5C 90.5,182.167 90.5,181.833 90.5,181.5C 96.2507,182.252 99.584,179.752 100.5,174C 99.5798,168.366 96.2465,165.866 90.5,166.5C 90.5,160.167 90.5,153.833 90.5,147.5C 96.1252,147.376 99.4585,144.542 100.5,139C 99.9222,134.255 97.2556,131.755 92.5,131.5C 92.2132,124.5 93.2132,117.834 95.5,111.5C 107.297,113.282 112.63,108.282 111.5,96.5C 122.167,96.5 132.833,96.5 143.5,96.5C 143.129,109.482 149.129,113.982 161.5,110C 164.359,107.448 166.026,104.281 166.5,100.5C 168.735,100.795 170.735,100.461 172.5,99.5C 176.961,99.2102 179.795,96.8769 181,92.5C 182.151,81.8169 177.318,76.8169 166.5,77.5C 164.574,67.0808 158.574,63.5808 148.5,67C 145.8,68.8567 144.134,71.3567 143.5,74.5C 142.539,76.2646 142.205,78.2646 142.5,80.5C 132.5,80.5 122.5,80.5 112.5,80.5C 112.795,78.2646 112.461,76.2646 111.5,74.5C 110.99,71.3257 109.323,68.9923 106.5,67.5C 108.906,58.9498 111.906,50.6165 115.5,42.5C 129.171,42.6666 142.837,42.4999 156.5,42C 162.89,40.4411 167.223,36.6077 169.5,30.5 Z"/></g>
<g><path style="opacity:1" fill="#5d557e" d="M 106.5,67.5 C 109.323,68.9923 110.99,71.3257 111.5,74.5C 111.5,76.8333 111.5,79.1667 111.5,81.5C 111.5,86.5 111.5,91.5 111.5,96.5C 112.63,108.282 107.297,113.282 95.5,111.5C 91.4203,109.021 89.087,105.354 88.5,100.5C 85.9407,100.802 83.6074,100.468 81.5,99.5C 83.8333,99.5 86.1667,99.5 88.5,99.5C 88.5,92.1667 88.5,84.8333 88.5,77.5C 90.5134,66.8288 96.5134,63.4954 106.5,67.5 Z"/></g>
<g><path style="opacity:1" fill="#5d557e" d="M 166.5,77.5 C 166.5,84.8333 166.5,92.1667 166.5,99.5C 168.5,99.5 170.5,99.5 172.5,99.5C 170.735,100.461 168.735,100.795 166.5,100.5C 166.026,104.281 164.359,107.448 161.5,110C 149.129,113.982 143.129,109.482 143.5,96.5C 143.5,91.5 143.5,86.5 143.5,81.5C 143.5,79.1667 143.5,76.8333 143.5,74.5C 144.134,71.3567 145.8,68.8567 148.5,67C 158.574,63.5808 164.574,67.0808 166.5,77.5 Z"/></g>
<g><path style="opacity:1" fill="#463c5f" d="M 88.5,77.5 C 88.5,84.8333 88.5,92.1667 88.5,99.5C 86.1667,99.5 83.8333,99.5 81.5,99.5C 77.583,98.7517 75.083,96.4183 74,92.5C 72.8486,81.8169 77.6819,76.8169 88.5,77.5 Z"/></g>
<g><path style="opacity:1" fill="#463c5f" d="M 166.5,77.5 C 177.318,76.8169 182.151,81.8169 181,92.5C 179.795,96.8769 176.961,99.2102 172.5,99.5C 170.5,99.5 168.5,99.5 166.5,99.5C 166.5,92.1667 166.5,84.8333 166.5,77.5 Z"/></g>
<g><path style="opacity:1" fill="#9993ac" d="M 111.5,74.5 C 112.461,76.2646 112.795,78.2646 112.5,80.5C 122.5,80.5 132.5,80.5 142.5,80.5C 142.205,78.2646 142.539,76.2646 143.5,74.5C 143.5,76.8333 143.5,79.1667 143.5,81.5C 132.833,81.5 122.167,81.5 111.5,81.5C 111.5,79.1667 111.5,76.8333 111.5,74.5 Z"/></g>
<g><path style="opacity:1" fill="#453b5e" d="M 111.5,81.5 C 122.167,81.5 132.833,81.5 143.5,81.5C 143.5,86.5 143.5,91.5 143.5,96.5C 132.833,96.5 122.167,96.5 111.5,96.5C 111.5,91.5 111.5,86.5 111.5,81.5 Z"/></g>
<g><path style="opacity:1" fill="#1ccbfd" d="M 91.5,131.5 C 91.5,136.5 91.5,141.5 91.5,146.5C 88.5,146.5 85.5,146.5 82.5,146.5C 76.2036,143.653 75.0369,139.32 79,133.5C 82.922,131.688 87.0887,131.021 91.5,131.5 Z"/></g>
<g><path style="opacity:1" fill="#6bdcfe" d="M 91.5,131.5 C 91.8333,131.5 92.1667,131.5 92.5,131.5C 97.2556,131.755 99.9222,134.255 100.5,139C 99.4585,144.542 96.1252,147.376 90.5,147.5C 87.6146,147.806 84.9479,147.473 82.5,146.5C 85.5,146.5 88.5,146.5 91.5,146.5C 91.5,141.5 91.5,136.5 91.5,131.5 Z"/></g>
<g><path style="opacity:1" fill="#62dcfe" d="M 124.5,131.5 C 140.837,131.333 157.17,131.5 173.5,132C 177.212,134.558 178.378,138.058 177,142.5C 176.5,144.333 175.333,145.5 173.5,146C 156.833,146.667 140.167,146.667 123.5,146C 118.003,140.683 118.336,135.85 124.5,131.5 Z"/></g>
<g><path style="opacity:1" fill="#24cbfd" d="M 90.5,166.5 C 90.5,171.5 90.5,176.5 90.5,181.5C 90.5,181.833 90.5,182.167 90.5,182.5C 83.3643,183.443 78.6976,180.61 76.5,174C 78.6226,167.109 83.2892,164.609 90.5,166.5 Z"/></g>
<g><path style="opacity:1" fill="#65dcfe" d="M 90.5,166.5 C 96.2465,165.866 99.5798,168.366 100.5,174C 99.584,179.752 96.2507,182.252 90.5,181.5C 90.5,176.5 90.5,171.5 90.5,166.5 Z"/></g>
<g><path style="opacity:1" fill="#62dcfe" d="M 123.5,166.5 C 140.17,166.333 156.837,166.5 173.5,167C 177.212,169.513 178.378,173.013 177,177.5C 176.5,179.333 175.333,180.5 173.5,181C 156.833,181.667 140.167,181.667 123.5,181C 118.232,176.171 118.232,171.337 123.5,166.5 Z"/></g>
<g><path style="opacity:1" fill="#22cafd" d="M 92.5,200.5 C 92.5,200.833 92.5,201.167 92.5,201.5C 93.9026,206.387 94.5693,211.387 94.5,216.5C 90.1539,216.666 85.8206,216.499 81.5,216C 75.9533,212.374 75.2867,208.041 79.5,203C 83.5458,200.826 87.8791,199.993 92.5,200.5 Z"/></g>
<g><path style="opacity:1" fill="#66dcfe" d="M 92.5,201.5 C 93.8734,201.343 95.2068,201.51 96.5,202C 101.997,207.317 101.664,212.15 95.5,216.5C 95.1667,216.5 94.8333,216.5 94.5,216.5C 94.5693,211.387 93.9026,206.387 92.5,201.5 Z"/></g>
<g><path style="opacity:1" fill="#62dcfe" d="M 123.5,201.5 C 140.17,201.333 156.837,201.5 173.5,202C 177.212,204.513 178.378,208.013 177,212.5C 176.5,214.333 175.333,215.5 173.5,216C 157.167,216.667 140.833,216.667 124.5,216C 118.205,211.663 117.872,206.829 123.5,201.5 Z"/></g>
</svg>
