<?xml version="1.0" encoding="UTF-8"?>
<!DOCTYPE svg PUBLIC "-//W3C//DTD SVG 1.1//EN" "http://www.w3.org/Graphics/SVG/1.1/DTD/svg11.dtd">
<svg xmlns="http://www.w3.org/2000/svg" version="1.1" width="256px" height="256px" style="shape-rendering:geometricPrecision; text-rendering:geometricPrecision; image-rendering:optimizeQuality; fill-rule:evenodd; clip-rule:evenodd" xmlns:xlink="http://www.w3.org/1999/xlink">
<g><path style="opacity:0.994" fill="#0e5852" d="M 20.5,45.5 C 54.5016,45.3333 88.5016,45.5 122.5,46C 128.667,48.1667 132.833,52.3333 135,58.5C 135.83,108.737 135.664,158.904 134.5,209C 97.1667,209.667 59.8333,209.667 22.5,209C 15,206.833 10.1667,202 8,194.5C 7.33333,149.167 7.33333,103.833 8,58.5C 10.3531,52.3154 14.5198,47.982 20.5,45.5 Z M 35.5,53.5 C 62.1687,53.3334 88.8354,53.5 115.5,54C 122,55.1667 125.833,59 127,65.5C 127.5,98.8317 127.667,132.165 127.5,165.5C 96.8333,165.5 66.1667,165.5 35.5,165.5C 35.5,128.167 35.5,90.8333 35.5,53.5 Z M 29.5,173.5 C 62.1667,173.5 94.8333,173.5 127.5,173.5C 127.5,177.5 127.5,181.5 127.5,185.5C 122.489,185.334 117.489,185.501 112.5,186C 111.167,188.333 111.167,190.667 112.5,193C 117.489,193.499 122.489,193.666 127.5,193.5C 127.5,196.167 127.5,198.833 127.5,201.5C 93.1259,201.966 58.7925,201.466 24.5,200C 17.22,196.269 14.72,190.435 17,182.5C 19.7134,177.26 23.8801,174.26 29.5,173.5 Z"/></g>
<g><path style="opacity:0.995" fill="#0e5951" d="M 183.5,175.5 C 170.167,167.5 156.833,167.5 143.5,175.5C 143.333,136.499 143.5,97.4986 144,58.5C 149.037,47.5657 157.537,43.399 169.5,46C 176.667,47.8333 181.167,52.3333 183,59.5C 183.5,98.1652 183.667,136.832 183.5,175.5 Z M 151.5,77.5 C 159.5,77.5 167.5,77.5 175.5,77.5C 175.5,85.5 175.5,93.5 175.5,101.5C 167.5,101.5 159.5,101.5 151.5,101.5C 151.5,93.5 151.5,85.5 151.5,77.5 Z"/></g>
<g><path style="opacity:0.992" fill="#0e5851" d="M 200.5,45.5 C 208.087,45.1858 215.587,45.5192 223,46.5C 223.333,51.5 223.667,56.5 224,61.5C 230.524,64.8837 233.024,70.217 231.5,77.5C 236.762,77.1953 241.928,77.5286 247,78.5C 247.667,95.1667 247.667,111.833 247,128.5C 244.936,129.591 242.769,129.758 240.5,129C 239.51,114.579 239.176,100.079 239.5,85.5C 236.833,85.5 234.167,85.5 231.5,85.5C 231.667,117.168 231.5,148.835 231,180.5C 228.619,181.435 226.119,181.768 223.5,181.5C 223.666,186.511 223.499,191.511 223,196.5C 220.619,197.435 218.119,197.768 215.5,197.5C 215.665,201.182 215.499,204.848 215,208.5C 212.936,209.591 210.769,209.758 208.5,209C 207.867,205.541 207.2,202.041 206.5,198.5C 204.291,197.894 202.124,197.227 200,196.5C 198.389,191.854 198.222,187.187 199.5,182.5C 196.973,181.786 194.473,181.12 192,180.5C 191.333,143.167 191.333,105.833 192,68.5C 193.309,66.0243 195.142,64.0243 197.5,62.5C 198.116,56.7153 199.116,51.0487 200.5,45.5 Z M 204.5,69.5 C 209.463,70.1457 214.463,70.3124 219.5,70C 221.333,70.5 222.5,71.6667 223,73.5C 223.5,106.832 223.667,140.165 223.5,173.5C 215.5,173.5 207.5,173.5 199.5,173.5C 199.333,140.165 199.5,106.832 200,73.5C 200.907,71.3909 202.407,70.0576 204.5,69.5 Z"/></g>
<g><path style="opacity:0.998" fill="#f2be21" d="M 44.5,65.5 C 69.1689,65.3334 93.8356,65.5 118.5,66C 119.658,82.7594 119.825,99.5927 119,116.5C 94.239,117.661 69.4057,117.827 44.5,117C 43.1733,99.8334 43.1733,82.6667 44.5,65.5 Z"/></g>
<g><path style="opacity:0.973" fill="#0e5952" d="M 92.5,149.5 C 101.173,149.334 109.84,149.5 118.5,150C 119.591,152.064 119.758,154.231 119,156.5C 110.245,157.65 101.412,157.816 92.5,157C 91.2215,154.502 91.2215,152.002 92.5,149.5 Z"/></g>
<g><path style="opacity:0.977" fill="#f0bd22" d="M 183.5,175.5 C 183.66,177.199 183.494,178.866 183,180.5C 177.626,190.082 172.126,199.582 166.5,209C 162.525,210.379 159.691,209.213 158,205.5C 153.587,197.005 148.92,188.672 144,180.5C 143.506,178.866 143.34,177.199 143.5,175.5C 156.833,167.5 170.167,167.5 183.5,175.5 Z"/></g>
<g><path style="opacity:0.976" fill="#0e5951" d="M 68.5,185.5 C 79.8382,185.333 91.1716,185.5 102.5,186C 103.833,188.333 103.833,190.667 102.5,193C 91.1667,193.667 79.8333,193.667 68.5,193C 67.2215,190.502 67.2215,188.002 68.5,185.5 Z"/></g>
</svg>
