<?xml version="1.0" encoding="UTF-8"?>
<!DOCTYPE svg PUBLIC "-//W3C//DTD SVG 1.1//EN" "http://www.w3.org/Graphics/SVG/1.1/DTD/svg11.dtd">
<svg xmlns="http://www.w3.org/2000/svg" version="1.1" width="256px" height="256px" style="shape-rendering:geometricPrecision; text-rendering:geometricPrecision; image-rendering:optimizeQuality; fill-rule:evenodd; clip-rule:evenodd" xmlns:xlink="http://www.w3.org/1999/xlink">
<g><path style="opacity:0.949" fill="#5a4146" d="M 115.5,34.5 C 102.886,40.1766 99.7189,49.1766 106,61.5C 108.553,63.982 111.053,66.3153 113.5,68.5C 106.982,68.3901 100.815,69.7234 95,72.5C 94.8407,77.9162 94.174,83.2496 93,88.5C 90.2519,91.7342 87.7519,95.0676 85.5,98.5C 83.071,90.1855 81.7377,81.6855 81.5,73C 81.0626,49.6113 92.3959,36.778 115.5,34.5 Z"/></g>
<g><path style="opacity:1" fill="#694b4b" d="M 115.5,34.5 C 133.17,34.3334 150.836,34.5001 168.5,35C 170.815,36.1094 172.315,37.9427 173,40.5C 173.667,54.5 173.667,68.5 173,82.5C 171.668,88.1568 170.501,93.8234 169.5,99.5C 167.762,95.7337 165.262,92.4004 162,89.5C 161.392,87.8455 160.892,86.1789 160.5,84.5C 160.66,82.8008 160.494,81.1341 160,79.5C 145.928,69.9408 130.428,66.2741 113.5,68.5C 111.053,66.3153 108.553,63.982 106,61.5C 99.7189,49.1766 102.886,40.1766 115.5,34.5 Z"/></g>
<g><path style="opacity:0.999" fill="#e5ae77" d="M 160.5,84.5 C 146.774,78.7418 132.441,76.9084 117.5,79C 114,79.8333 111.833,82 111,85.5C 110.333,97.1667 110.333,108.833 111,120.5C 112.339,129.833 115.839,138.166 121.5,145.5C 114.623,144.542 108.29,142.209 102.5,138.5C 89.8612,128.282 84.1945,114.948 85.5,98.5C 87.7519,95.0676 90.2519,91.7342 93,88.5C 94.174,83.2496 94.8407,77.9162 95,72.5C 100.815,69.7234 106.982,68.3901 113.5,68.5C 130.428,66.2741 145.928,69.9408 160,79.5C 160.494,81.1341 160.66,82.8008 160.5,84.5 Z"/></g>
<g><path style="opacity:0.992" fill="#efbf86" d="M 160.5,84.5 C 160.892,86.1789 161.392,87.8455 162,89.5C 165.262,92.4004 167.762,95.7337 169.5,99.5C 170.044,111.335 166.877,122.001 160,131.5C 157.894,134.118 155.394,136.118 152.5,137.5C 143.272,144.058 132.938,146.725 121.5,145.5C 115.839,138.166 112.339,129.833 111,120.5C 110.333,108.833 110.333,97.1667 111,85.5C 111.833,82 114,79.8333 117.5,79C 132.441,76.9084 146.774,78.7418 160.5,84.5 Z"/></g>
<g><path style="opacity:0.975" fill="#694b4b" d="M 239.5,130.5 C 235.139,124.464 229.139,120.631 221.5,119C 214.478,117.341 207.478,117.174 200.5,118.5C 193.177,113.859 191.844,107.859 196.5,100.5C 197.574,99.1154 198.907,97.9487 200.5,97C 213.928,96.0377 227.261,96.371 240.5,98C 241.701,98.9025 242.535,100.069 243,101.5C 244.345,111.609 243.178,121.276 239.5,130.5 Z"/></g>
<g><path style="opacity:0.942" fill="#5b4146" d="M 32.5,98.5 C 25.9543,102.348 23.7876,108.015 26,115.5C 26.8041,118.146 28.3041,120.146 30.5,121.5C 27.3648,124.808 24.3648,128.308 21.5,132C 17.1552,134.018 13.8218,137.018 11.5,141C 13.2701,149.065 17.6035,155.231 24.5,159.5C 24.5,162.5 24.5,165.5 24.5,168.5C 24.0432,170.773 22.7099,172.106 20.5,172.5C 13.9401,171.035 7.60672,168.869 1.5,166C 0.397676,163.599 0.23101,161.099 1,158.5C 4.35193,146.706 6.68527,134.706 8,122.5C 10.7676,108.898 18.9343,100.898 32.5,98.5 Z"/></g>
<g><path style="opacity:1" fill="#684b4b" d="M 53.5,172.5 C 51.1667,172.167 49.8333,170.833 49.5,168.5C 49.5,165.5 49.5,162.5 49.5,159.5C 54.3267,156.337 57.66,152.004 59.5,146.5C 62.6856,141.778 62.019,137.611 57.5,134C 49.2593,128.213 40.2593,124.047 30.5,121.5C 28.3041,120.146 26.8041,118.146 26,115.5C 23.7876,108.015 25.9543,102.348 32.5,98.5C 49.5751,96.6318 60.7417,103.965 66,120.5C 67.4382,134.799 70.2715,148.799 74.5,162.5C 73.5734,165.47 71.5734,167.303 68.5,168C 63.572,169.81 58.572,171.31 53.5,172.5 Z"/></g>
<g><path style="opacity:0.908" fill="#5a4146" d="M 196.5,100.5 C 191.844,107.859 193.177,113.859 200.5,118.5C 194.914,122.399 190.914,127.399 188.5,133.5C 185.815,126.056 184.648,118.39 185,110.5C 186.551,104.444 190.385,101.11 196.5,100.5 Z"/></g>
<g><path style="opacity:0.998" fill="#e4ae77" d="M 239.5,130.5 C 239.5,131.167 239.5,131.833 239.5,132.5C 236.207,130.251 232.54,128.751 228.5,128C 222.769,127.567 217.102,126.734 211.5,125.5C 206.479,125.358 203.312,127.692 202,132.5C 200.95,140.663 201.617,148.663 204,156.5C 204.997,158.323 206.164,159.99 207.5,161.5C 205.297,161.396 203.297,160.73 201.5,159.5C 191.9,153.633 187.566,144.966 188.5,133.5C 190.914,127.399 194.914,122.399 200.5,118.5C 207.478,117.174 214.478,117.341 221.5,119C 229.139,120.631 235.139,124.464 239.5,130.5 Z"/></g>
<g><path style="opacity:1" fill="#e3ad77" d="M 30.5,121.5 C 40.2593,124.047 49.2593,128.213 57.5,134C 62.019,137.611 62.6856,141.778 59.5,146.5C 53.1893,141.041 46.1893,136.541 38.5,133C 36.5527,132.009 34.5527,131.675 32.5,132C 30.5526,135.07 28.0526,137.57 25,139.5C 22.4529,148.994 24.9529,156.66 32.5,162.5C 29.6733,161.892 27.0067,160.892 24.5,159.5C 17.6035,155.231 13.2701,149.065 11.5,141C 13.8218,137.018 17.1552,134.018 21.5,132C 24.3648,128.308 27.3648,124.808 30.5,121.5 Z"/></g>
<g><path style="opacity:0.985" fill="#efbf86" d="M 239.5,132.5 C 240.645,143.871 236.645,152.871 227.5,159.5C 221.012,162.393 214.345,163.059 207.5,161.5C 206.164,159.99 204.997,158.323 204,156.5C 201.617,148.663 200.95,140.663 202,132.5C 203.312,127.692 206.479,125.358 211.5,125.5C 217.102,126.734 222.769,127.567 228.5,128C 232.54,128.751 236.207,130.251 239.5,132.5 Z"/></g>
<g><path style="opacity:1" fill="#efbf86" d="M 59.5,146.5 C 57.66,152.004 54.3267,156.337 49.5,159.5C 44.1353,162.006 38.4686,163.006 32.5,162.5C 24.9529,156.66 22.4529,148.994 25,139.5C 28.0526,137.57 30.5526,135.07 32.5,132C 34.5527,131.675 36.5527,132.009 38.5,133C 46.1893,136.541 53.1893,141.041 59.5,146.5 Z"/></g>
<g><path style="opacity:1" fill="#d39c6e" d="M 152.5,137.5 C 152.5,140.833 152.5,144.167 152.5,147.5C 135.816,156.831 119.149,156.831 102.5,147.5C 102.5,144.5 102.5,141.5 102.5,138.5C 108.29,142.209 114.623,144.542 121.5,145.5C 132.938,146.725 143.272,144.058 152.5,137.5 Z"/></g>
<g><path style="opacity:0.994" fill="#e5ad77" d="M 102.5,147.5 C 119.149,156.831 135.816,156.831 152.5,147.5C 152.5,150.167 152.5,152.833 152.5,155.5C 144.36,160.74 136.027,165.74 127.5,170.5C 118.973,165.74 110.64,160.74 102.5,155.5C 102.5,152.833 102.5,150.167 102.5,147.5 Z"/></g>
<g><path style="opacity:0.989" fill="#d23d69" d="M 102.5,155.5 C 110.64,160.74 118.973,165.74 127.5,170.5C 136.027,165.74 144.36,160.74 152.5,155.5C 157.503,156.788 160.17,160.121 160.5,165.5C 155.715,172.124 150.715,178.624 145.5,185C 144.167,185.667 142.833,185.667 141.5,185C 139.667,183.167 137.833,181.333 136,179.5C 135.768,180.737 135.268,181.737 134.5,182.5C 134.302,177.606 131.969,173.939 127.5,171.5C 123.031,173.939 120.698,177.606 120.5,182.5C 119.732,181.737 119.232,180.737 119,179.5C 117.167,181.333 115.333,183.167 113.5,185C 112.167,185.667 110.833,185.667 109.5,185C 104.285,178.624 99.2845,172.124 94.5,165.5C 94.83,160.121 97.4967,156.788 102.5,155.5 Z"/></g>
<g><path style="opacity:1" fill="#d29b6e" d="M 24.5,159.5 C 27.0067,160.892 29.6733,161.892 32.5,162.5C 38.4686,163.006 44.1353,162.006 49.5,159.5C 49.5,162.5 49.5,165.5 49.5,168.5C 41.1482,171.127 32.8149,171.127 24.5,168.5C 24.5,165.5 24.5,162.5 24.5,159.5 Z"/></g>
<g><path style="opacity:1" fill="#d7a172" d="M 201.5,159.5 C 203.297,160.73 205.297,161.396 207.5,161.5C 214.345,163.059 221.012,162.393 227.5,159.5C 227.5,161.167 227.5,162.833 227.5,164.5C 223.194,168.635 218.694,172.635 214,176.5C 209.663,172.599 205.496,168.599 201.5,164.5C 201.5,162.833 201.5,161.167 201.5,159.5 Z"/></g>
<g><path style="opacity:0.988" fill="#fe507c" d="M 94.5,165.5 C 99.2845,172.124 104.285,178.624 109.5,185C 110.833,185.667 112.167,185.667 113.5,185C 115.333,183.167 117.167,181.333 119,179.5C 119.232,180.737 119.732,181.737 120.5,182.5C 120.833,183.5 121.5,184.167 122.5,184.5C 121.194,196.472 120.194,208.472 119.5,220.5C 107.167,220.5 94.8333,220.5 82.5,220.5C 82.8774,213.743 82.3774,207.076 81,200.5C 75.369,193.035 69.2023,186.035 62.5,179.5C 62.5,178.833 62.5,178.167 62.5,177.5C 72.786,172.515 83.4526,168.515 94.5,165.5 Z"/></g>
<g><path style="opacity:0.992" fill="#fe507d" d="M 160.5,165.5 C 168.31,167.77 175.977,170.437 183.5,173.5C 186.982,174.744 189.982,176.744 192.5,179.5C 185.798,186.035 179.631,193.035 174,200.5C 172.623,207.076 172.123,213.743 172.5,220.5C 160.167,220.5 147.833,220.5 135.5,220.5C 134.806,208.472 133.806,196.472 132.5,184.5C 133.5,184.167 134.167,183.5 134.5,182.5C 135.268,181.737 135.768,180.737 136,179.5C 137.833,181.333 139.667,183.167 141.5,185C 142.833,185.667 144.167,185.667 145.5,185C 150.715,178.624 155.715,172.124 160.5,165.5 Z"/></g>
<g><path style="opacity:0.992" fill="#c7cee0" d="M 201.5,164.5 C 205.496,168.599 209.663,172.599 214,176.5C 218.694,172.635 223.194,168.635 227.5,164.5C 229.543,165.579 230.876,167.246 231.5,169.5C 229.218,173.893 226.552,178.059 223.5,182C 221.718,182.122 220.052,181.622 218.5,180.5C 213.852,175.939 211.185,176.939 210.5,183.5C 209.732,182.737 209.232,181.737 209,180.5C 207,183.167 205,183.167 203,180.5C 201.14,176.78 199.307,173.114 197.5,169.5C 197.731,166.937 199.065,165.27 201.5,164.5 Z"/></g>
<g><path style="opacity:0.985" fill="#e5af79" d="M 24.5,168.5 C 32.8149,171.127 41.1482,171.127 49.5,168.5C 49.8333,170.833 51.1667,172.167 53.5,172.5C 54.4363,173.974 55.7697,174.974 57.5,175.5C 50.4052,185.7 40.7386,189.2 28.5,186C 23.3869,183.369 18.7203,180.202 14.5,176.5C 16.5,175.167 18.5,173.833 20.5,172.5C 22.7099,172.106 24.0432,170.773 24.5,168.5 Z"/></g>
<g><path style="opacity:0.983" fill="#d5d9ea" d="M 197.5,169.5 C 199.307,173.114 201.14,176.78 203,180.5C 205,183.167 207,183.167 209,180.5C 209.232,181.737 209.732,182.737 210.5,183.5C 210.827,195.749 210.827,208.082 210.5,220.5C 205.5,220.5 200.5,220.5 195.5,220.5C 195.783,219.711 196.283,219.044 197,218.5C 197.667,207.5 197.667,196.5 197,185.5C 196.208,182.894 194.708,180.894 192.5,179.5C 189.982,176.744 186.982,174.744 183.5,173.5C 187.897,171.595 192.563,170.261 197.5,169.5 Z"/></g>
<g><path style="opacity:0.985" fill="#d4dbec" d="M 231.5,169.5 C 238.361,171.049 245.028,173.216 251.5,176C 252.823,176.816 253.489,177.983 253.5,179.5C 248.503,183.664 244.003,188.331 240,193.5C 238.586,202.418 238.086,211.418 238.5,220.5C 231.833,220.5 225.167,220.5 218.5,220.5C 217.442,207.143 217.442,193.81 218.5,180.5C 220.052,181.622 221.718,182.122 223.5,182C 226.552,178.059 229.218,173.893 231.5,169.5 Z"/></g>
<g><path style="opacity:1" fill="#5c5c6e" d="M 134.5,182.5 C 134.167,183.5 133.5,184.167 132.5,184.5C 129.167,184.5 125.833,184.5 122.5,184.5C 121.5,184.167 120.833,183.5 120.5,182.5C 120.698,177.606 123.031,173.939 127.5,171.5C 131.969,173.939 134.302,177.606 134.5,182.5 Z"/></g>
<g><path style="opacity:1" fill="#d5daeb" d="M 57.5,175.5 C 59.0495,176.441 60.7162,177.107 62.5,177.5C 62.5,178.167 62.5,178.833 62.5,179.5C 60.2918,180.894 58.7918,182.894 58,185.5C 57.3333,196.5 57.3333,207.5 58,218.5C 58.7172,219.044 59.2172,219.711 59.5,220.5C 45.1667,220.5 30.8333,220.5 16.5,220.5C 16.8699,212.097 16.3699,203.764 15,195.5C 10.626,191.621 6.12599,187.954 1.5,184.5C 4.98788,180.583 9.32121,177.917 14.5,176.5C 18.7203,180.202 23.3869,183.369 28.5,186C 40.7386,189.2 50.4052,185.7 57.5,175.5 Z"/></g>
<g><path style="opacity:1" fill="#c7cfe2" d="M 253.5,179.5 C 254.167,180.167 254.833,180.833 255.5,181.5C 255.5,194.167 255.5,206.833 255.5,219.5C 249.925,220.452 244.259,220.786 238.5,220.5C 238.086,211.418 238.586,202.418 240,193.5C 244.003,188.331 248.503,183.664 253.5,179.5 Z"/></g>
<g><path style="opacity:1" fill="#d23c69" d="M 62.5,179.5 C 69.2023,186.035 75.369,193.035 81,200.5C 82.3774,207.076 82.8774,213.743 82.5,220.5C 74.8333,220.5 67.1667,220.5 59.5,220.5C 59.2172,219.711 58.7172,219.044 58,218.5C 57.3333,207.5 57.3333,196.5 58,185.5C 58.7918,182.894 60.2918,180.894 62.5,179.5 Z"/></g>
<g><path style="opacity:1" fill="#d23c69" d="M 192.5,179.5 C 194.708,180.894 196.208,182.894 197,185.5C 197.667,196.5 197.667,207.5 197,218.5C 196.283,219.044 195.783,219.711 195.5,220.5C 187.833,220.5 180.167,220.5 172.5,220.5C 172.123,213.743 172.623,207.076 174,200.5C 179.631,193.035 185.798,186.035 192.5,179.5 Z"/></g>
<g><path style="opacity:1" fill="#c7cfe1" d="M 1.5,184.5 C 6.12599,187.954 10.626,191.621 15,195.5C 16.3699,203.764 16.8699,212.097 16.5,220.5C 10.7414,220.786 5.07475,220.452 -0.5,219.5C -0.5,208.5 -0.5,197.5 -0.5,186.5C 0.166667,185.833 0.833333,185.167 1.5,184.5 Z"/></g>
<g><path style="opacity:1" fill="#737386" d="M 122.5,184.5 C 125.833,184.5 129.167,184.5 132.5,184.5C 133.806,196.472 134.806,208.472 135.5,220.5C 130.167,220.5 124.833,220.5 119.5,220.5C 120.194,208.472 121.194,196.472 122.5,184.5 Z"/></g>
<g><path style="opacity:1" fill="#adb6cf" d="M 218.5,180.5 C 217.442,193.81 217.442,207.143 218.5,220.5C 215.833,220.5 213.167,220.5 210.5,220.5C 210.827,208.082 210.827,195.749 210.5,183.5C 211.185,176.939 213.852,175.939 218.5,180.5 Z"/></g>
</svg>
