<?xml version="1.0" encoding="UTF-8"?>
<!DOCTYPE svg PUBLIC "-//W3C//DTD SVG 1.1//EN" "http://www.w3.org/Graphics/SVG/1.1/DTD/svg11.dtd">
<svg xmlns="http://www.w3.org/2000/svg" version="1.1" width="256px" height="256px" style="shape-rendering:geometricPrecision; text-rendering:geometricPrecision; image-rendering:optimizeQuality; fill-rule:evenodd; clip-rule:evenodd" xmlns:xlink="http://www.w3.org/1999/xlink">
<g><path style="opacity:1" fill="#fecc00" d="M 203.5,79.5 C 201.893,97.9147 196.56,115.248 187.5,131.5C 187.5,104.833 187.5,78.1667 187.5,51.5C 147.5,51.5 107.5,51.5 67.5,51.5C 67.5,86.1667 67.5,120.833 67.5,155.5C 101.833,155.5 136.167,155.5 170.5,155.5C 165.406,161.528 159.739,166.861 153.5,171.5C 133.831,171.667 114.164,171.5 94.5,171C 89.8333,166.333 85.1667,166.333 80.5,171C 75.5,171.333 70.5,171.667 65.5,172C 62.8333,174.333 62.8333,176.667 65.5,179C 70.5,179.333 75.5,179.667 80.5,180C 85.1667,184.667 89.8333,184.667 94.5,180C 109.496,179.5 124.496,179.333 139.5,179.5C 123.366,188.909 106.033,194.243 87.5,195.5C 75.5,195.5 63.5,195.5 51.5,195.5C 51.5,163.5 51.5,131.5 51.5,99.5C 51.5,94.1667 51.5,88.8333 51.5,83.5C 51.5,67.5 51.5,51.5 51.5,35.5C 102.167,35.5 152.833,35.5 203.5,35.5C 203.5,50.1667 203.5,64.8333 203.5,79.5 Z"/></g>
<g><path style="opacity:1" fill="#ed1c24" d="M 187.5,131.5 C 187.5,139.5 187.5,147.5 187.5,155.5C 181.833,155.5 176.167,155.5 170.5,155.5C 136.167,155.5 101.833,155.5 67.5,155.5C 67.5,120.833 67.5,86.1667 67.5,51.5C 107.5,51.5 147.5,51.5 187.5,51.5C 187.5,78.1667 187.5,104.833 187.5,131.5 Z"/></g>
<g><path style="opacity:1" fill="#f1eff0" d="M 107.5,75.5 C 123.34,84.5849 139.007,93.9182 154.5,103.5C 139.083,112.959 123.583,122.292 108,131.5C 107.5,112.836 107.333,94.1696 107.5,75.5 Z"/></g>
<g><path style="opacity:0.997" fill="#58595b" d="M 51.5,83.5 C 51.5,88.8333 51.5,94.1667 51.5,99.5C 46.1667,99.5 40.8333,99.5 35.5,99.5C 35.5,136.833 35.5,174.167 35.5,211.5C 30.1667,211.5 24.8333,211.5 19.5,211.5C 19.3333,172.165 19.5,132.832 20,93.5C 21.8333,89 25,85.8333 29.5,84C 36.8258,83.5003 44.1591,83.3337 51.5,83.5 Z"/></g>
<g><path style="opacity:0.997" fill="#57595b" d="M 203.5,83.5 C 210.841,83.3337 218.174,83.5003 225.5,84C 230,85.8333 233.167,89 235,93.5C 235.5,132.832 235.667,172.165 235.5,211.5C 234.167,211.5 232.833,211.5 231.5,211.5C 227.5,211.5 223.5,211.5 219.5,211.5C 219.5,178.5 219.5,145.5 219.5,112.5C 219.5,108.167 219.5,103.833 219.5,99.5C 214.167,99.5 208.833,99.5 203.5,99.5C 203.5,94.1667 203.5,88.8333 203.5,83.5 Z"/></g>
<g><path style="opacity:1" fill="#ebbf00" d="M 203.5,79.5 C 203.5,80.8333 203.5,82.1667 203.5,83.5C 203.5,88.8333 203.5,94.1667 203.5,99.5C 203.5,118.5 203.5,137.5 203.5,156.5C 203.5,169.5 203.5,182.5 203.5,195.5C 190.5,195.5 177.5,195.5 164.5,195.5C 138.833,195.5 113.167,195.5 87.5,195.5C 106.033,194.243 123.366,188.909 139.5,179.5C 156.17,179.667 172.837,179.5 189.5,179C 192.167,176.667 192.167,174.333 189.5,172C 177.505,171.5 165.505,171.333 153.5,171.5C 159.739,166.861 165.406,161.528 170.5,155.5C 176.167,155.5 181.833,155.5 187.5,155.5C 187.5,147.5 187.5,139.5 187.5,131.5C 196.56,115.248 201.893,97.9147 203.5,79.5 Z"/></g>
<g><path style="opacity:1" fill="#56a3ff" d="M 51.5,99.5 C 51.5,131.5 51.5,163.5 51.5,195.5C 63.5,195.5 75.5,195.5 87.5,195.5C 113.167,195.5 138.833,195.5 164.5,195.5C 149.006,204.665 132.34,209.999 114.5,211.5C 112.167,211.5 109.833,211.5 107.5,211.5C 83.5,211.5 59.5,211.5 35.5,211.5C 35.5,174.167 35.5,136.833 35.5,99.5C 40.8333,99.5 46.1667,99.5 51.5,99.5 Z"/></g>
<g><path style="opacity:1" fill="#56a3ff" d="M 203.5,99.5 C 208.833,99.5 214.167,99.5 219.5,99.5C 219.5,103.833 219.5,108.167 219.5,112.5C 216.751,128.078 211.418,142.745 203.5,156.5C 203.5,137.5 203.5,118.5 203.5,99.5 Z"/></g>
<g><path style="opacity:1" fill="#2488ff" d="M 219.5,112.5 C 219.5,145.5 219.5,178.5 219.5,211.5C 195.5,211.5 171.5,211.5 147.5,211.5C 136.5,211.5 125.5,211.5 114.5,211.5C 132.34,209.999 149.006,204.665 164.5,195.5C 177.5,195.5 190.5,195.5 203.5,195.5C 203.5,182.5 203.5,169.5 203.5,156.5C 211.418,142.745 216.751,128.078 219.5,112.5 Z"/></g>
<g><path style="opacity:1" fill="#d80426" d="M 153.5,171.5 C 165.505,171.333 177.505,171.5 189.5,172C 192.167,174.333 192.167,176.667 189.5,179C 172.837,179.5 156.17,179.667 139.5,179.5C 124.496,179.333 109.496,179.5 94.5,180C 89.8333,184.667 85.1667,184.667 80.5,180C 75.5,179.667 70.5,179.333 65.5,179C 62.8333,176.667 62.8333,174.333 65.5,172C 70.5,171.667 75.5,171.333 80.5,171C 85.1667,166.333 89.8333,166.333 94.5,171C 114.164,171.5 133.831,171.667 153.5,171.5 Z"/></g>
<g><path style="opacity:1" fill="#929497" d="M 19.5,211.5 C 24.8333,211.5 30.1667,211.5 35.5,211.5C 59.5,211.5 83.5,211.5 107.5,211.5C 105.989,226.039 112.489,231.372 127,227.5C 132.913,227.596 138.746,227.096 144.5,226C 145.893,224.829 146.727,223.329 147,221.5C 147.498,218.183 147.665,214.85 147.5,211.5C 171.5,211.5 195.5,211.5 219.5,211.5C 223.5,211.5 227.5,211.5 231.5,211.5C 233.307,220.128 230.974,227.295 224.5,233C 222.608,233.973 220.608,234.64 218.5,235C 150.167,235.5 81.8341,235.667 13.5,235.5C 12.7784,235.082 12.2784,234.416 12,233.5C 11.5003,226.174 11.3337,218.841 11.5,211.5C 14.1667,211.5 16.8333,211.5 19.5,211.5 Z"/></g>
<g><path style="opacity:1" fill="#58595b" d="M 107.5,211.5 C 109.833,211.5 112.167,211.5 114.5,211.5C 125.5,211.5 136.5,211.5 147.5,211.5C 147.665,214.85 147.498,218.183 147,221.5C 146.727,223.329 145.893,224.829 144.5,226C 138.746,227.096 132.913,227.596 127,227.5C 112.489,231.372 105.989,226.039 107.5,211.5 Z"/></g>
<g><path style="opacity:1" fill="#808285" d="M 231.5,211.5 C 232.833,211.5 234.167,211.5 235.5,211.5C 238.167,211.5 240.833,211.5 243.5,211.5C 243.666,218.841 243.5,226.174 243,233.5C 241.167,238 238,241.167 233.5,243C 162.833,243.667 92.1667,243.667 21.5,243C 17.6561,241.653 14.9894,239.153 13.5,235.5C 81.8341,235.667 150.167,235.5 218.5,235C 220.608,234.64 222.608,233.973 224.5,233C 230.974,227.295 233.307,220.128 231.5,211.5 Z"/></g>
</svg>
